<?xml version="1.0" encoding="utf-8"?>
<!-- Generator: Adobe Illustrator 28.0.0, SVG Export Plug-In . SVG Version: 6.00 Build 0)  -->
<svg version="1.1" id="Layer_1" xmlns="http://www.w3.org/2000/svg" xmlns:xlink="http://www.w3.org/1999/xlink" x="0px" y="0px"
	 viewBox="0 0 30 30" style="enable-background:new 0 0 30 30;" xml:space="preserve">
<style type="text/css">
	.st0{fill:url(#SVGID_1_);}
	.st1{fill:url(#SVGID_00000165200382850056683090000005522289991493773443_);}
	.st2{fill:url(#SVGID_00000026853964023999777120000005057923109151100299_);}
	.st3{fill:url(#SVGID_00000066491358762683716150000009844754281906630299_);}
	.st4{fill:url(#SVGID_00000135685900288206186700000003112563853129224625_);}
	.st5{fill:url(#SVGID_00000003799195127087008500000006290850740635882428_);}
	.st6{fill:url(#SVGID_00000019672499986171787040000009287627938483549620_);}
	.st7{fill:url(#SVGID_00000102544725128704208550000014921872027795952519_);}
	.st8{fill:url(#SVGID_00000101090950911078567550000012365810942679485610_);}
	.st9{fill:url(#SVGID_00000043427577721988412920000016707586411650349722_);}
	.st10{fill:url(#SVGID_00000141442622809251087940000007690407536660519041_);}
	.st11{fill:url(#SVGID_00000054246937907729224790000004694095953780742289_);}
	.st12{fill:url(#SVGID_00000078750978298707035930000003833786306460446132_);}
	.st13{fill:url(#SVGID_00000052800594310551166040000017903682041154761142_);}
	.st14{fill:url(#SVGID_00000101805615318647039990000008424514122095542926_);}
	.st15{fill:url(#SVGID_00000136411693594583477920000004857168353360193411_);}
	.st16{fill:url(#SVGID_00000155118155649590040990000013670782132194058675_);}
	.st17{fill:#1A1A1A;}
</style>
<g>
	<g>
		<linearGradient id="SVGID_1_" gradientUnits="userSpaceOnUse" x1="8.8615" y1="22.6042" x2="8.8615" y2="23.5045">
			<stop  offset="0" style="stop-color:#FD6CA7"/>
			<stop  offset="1" style="stop-color:#050033"/>
		</linearGradient>
		<path class="st0" d="M9.1,22.9l0.1-0.3l-0.3,0.2l-0.3-0.2l0.1,0.3l-0.2,0.2l0.3,0l0.1,0.3L9,23.2l0.3,0L9.1,22.9z M8.9,23.1
			l-0.1,0.1l-0.1-0.1l-0.2,0L8.7,23l0-0.2l0.1,0.1L9,22.8L9,23l0.1,0.1L8.9,23.1z"/>
		<g>
			
				<linearGradient id="SVGID_00000062881859256875203960000004204017168172420796_" gradientUnits="userSpaceOnUse" x1="14.9499" y1="14.1779" x2="15.0293" y2="14.1779">
				<stop  offset="0" style="stop-color:#FD6CA7"/>
				<stop  offset="1" style="stop-color:#050033"/>
			</linearGradient>
			<path style="fill:url(#SVGID_00000062881859256875203960000004204017168172420796_);" d="M15,14.2C15,14.2,15,14.2,15,14.2
				C15,14.2,15,14.2,15,14.2L15,14.2z"/>
			
				<linearGradient id="SVGID_00000157306468420654890320000015946034807863101839_" gradientUnits="userSpaceOnUse" x1="14.9895" y1="14.0619" x2="14.9895" y2="14.294">
				<stop  offset="0" style="stop-color:#FD6CA7"/>
				<stop  offset="1" style="stop-color:#050033"/>
			</linearGradient>
			<polygon style="fill:url(#SVGID_00000157306468420654890320000015946034807863101839_);" points="15,14.3 14.9,14.3 15,14.1 
				15,14.1 15,14.1 15,14.1 			"/>
		</g>
		<g>
			
				<linearGradient id="SVGID_00000170993288440249926440000009528952192230847910_" gradientUnits="userSpaceOnUse" x1="10.0662" y1="7.4605" x2="10.0662" y2="9.3119">
				<stop  offset="0" style="stop-color:#FD6CA7"/>
				<stop  offset="1" style="stop-color:#050033"/>
			</linearGradient>
			<path style="fill:url(#SVGID_00000170993288440249926440000009528952192230847910_);" d="M10.1,9.3L9.8,8.7L9.1,8.6l0.5-0.5
				L9.5,7.5l0.6,0.3l0.6-0.3l-0.1,0.7L11,8.6l-0.7,0.1L10.1,9.3z M9.6,8.4l0.3,0l0.1,0.3l0.1-0.3l0.3,0l-0.2-0.2l0.1-0.3L10.1,8
				L9.8,7.9l0.1,0.3L9.6,8.4z"/>
		</g>
		<g>
			
				<linearGradient id="SVGID_00000013895683639199369700000018097827484628479677_" gradientUnits="userSpaceOnUse" x1="24.4311" y1="16.6659" x2="24.4614" y2="16.6659">
				<stop  offset="0" style="stop-color:#FD6CA7"/>
				<stop  offset="1" style="stop-color:#050033"/>
			</linearGradient>
			<path style="fill:url(#SVGID_00000013895683639199369700000018097827484628479677_);" d="M24.4,16.7
				C24.4,16.7,24.4,16.7,24.4,16.7C24.4,16.7,24.4,16.7,24.4,16.7C24.5,16.6,24.4,16.7,24.4,16.7z"/>
			
				<linearGradient id="SVGID_00000095330844049121033460000007733764507233179546_" gradientUnits="userSpaceOnUse" x1="24.4364" y1="16.6469" x2="24.4364" y2="16.7182">
				<stop  offset="0" style="stop-color:#FD6CA7"/>
				<stop  offset="1" style="stop-color:#050033"/>
			</linearGradient>
			<path style="fill:url(#SVGID_00000095330844049121033460000007733764507233179546_);" d="M24.3,16.7c0,0,0.2,0,0.2,0.1L24.3,16.7
				z"/>
		</g>
		<g>
			
				<linearGradient id="SVGID_00000079476726882362416660000006551045482623613604_" gradientUnits="userSpaceOnUse" x1="24.4204" y1="16.7048" x2="24.4311" y2="16.7048">
				<stop  offset="0" style="stop-color:#FD6CA7"/>
				<stop  offset="1" style="stop-color:#050033"/>
			</linearGradient>
			<path style="fill:url(#SVGID_00000079476726882362416660000006551045482623613604_);" d="M24.4,16.7
				C24.4,16.7,24.4,16.7,24.4,16.7C24.4,16.7,24.4,16.7,24.4,16.7C24.4,16.7,24.4,16.7,24.4,16.7z"/>
			
				<linearGradient id="SVGID_00000005231879249261278770000015420768651417721737_" gradientUnits="userSpaceOnUse" x1="24.4228" y1="16.6482" x2="24.4228" y2="16.7771">
				<stop  offset="0" style="stop-color:#FD6CA7"/>
				<stop  offset="1" style="stop-color:#050033"/>
			</linearGradient>
			<polygon style="fill:url(#SVGID_00000005231879249261278770000015420768651417721737_);" points="24.5,16.8 24.5,16.7 24.3,16.7 
				24.3,16.7 24.3,16.7 24.4,16.7 24.3,16.7 24.3,16.6 24.5,16.8 24.5,16.7 			"/>
		</g>
		
			<linearGradient id="SVGID_00000063633688910781192680000017443513024565811093_" gradientUnits="userSpaceOnUse" x1="9.3898" y1="9.5736" x2="9.3898" y2="10.4737">
			<stop  offset="0" style="stop-color:#FD6CA7"/>
			<stop  offset="1" style="stop-color:#050033"/>
		</linearGradient>
		<path style="fill:url(#SVGID_00000063633688910781192680000017443513024565811093_);" d="M9.6,9.9l0.1-0.3L9.4,9.7L9.1,9.6
			l0.1,0.3l-0.2,0.2l0.3,0l0.1,0.3l0.1-0.3l0.3,0L9.6,9.9z M9.5,10.1l-0.1,0.1l-0.1-0.1l-0.2,0l0.1-0.1l0-0.2l0.1,0.1l0.1-0.1l0,0.2
			L9.6,10L9.5,10.1z"/>
		<g>
			
				<linearGradient id="SVGID_00000024719420068868413150000015505334616004440209_" gradientUnits="userSpaceOnUse" x1="14.9499" y1="9.6347" x2="15.0293" y2="9.6347">
				<stop  offset="0" style="stop-color:#FD6CA7"/>
				<stop  offset="1" style="stop-color:#050033"/>
			</linearGradient>
			<path style="fill:url(#SVGID_00000024719420068868413150000015505334616004440209_);" d="M14.9,9.6C15,9.6,15,9.6,14.9,9.6
				C15,9.6,15,9.6,14.9,9.6L14.9,9.6z"/>
			
				<linearGradient id="SVGID_00000181076320068570781120000007309297603835873707_" gradientUnits="userSpaceOnUse" x1="14.9895" y1="9.5183" x2="14.9895" y2="9.7513">
				<stop  offset="0" style="stop-color:#FD6CA7"/>
				<stop  offset="1" style="stop-color:#050033"/>
			</linearGradient>
			<polygon style="fill:url(#SVGID_00000181076320068570781120000007309297603835873707_);" points="15,9.8 14.9,9.7 15,9.5 15,9.5 
				15,9.7 			"/>
		</g>
		
			<linearGradient id="SVGID_00000088814066169518194570000008966620215739437993_" gradientUnits="userSpaceOnUse" x1="20.6598" y1="14.3278" x2="20.6598" y2="15.2282">
			<stop  offset="0" style="stop-color:#FD6CA7"/>
			<stop  offset="1" style="stop-color:#050033"/>
		</linearGradient>
		<path style="fill:url(#SVGID_00000088814066169518194570000008966620215739437993_);" d="M20.9,14.7l0.1-0.3l-0.3,0.2l-0.3-0.2
			l0.1,0.3l-0.2,0.2l0.3,0l0.1,0.3l0.1-0.3l0.3,0L20.9,14.7z M20.7,14.8L20.7,15l-0.1-0.1l-0.2,0l0.1-0.1l0-0.2l0.1,0.1l0.1-0.1
			l0,0.2l0.1,0.1L20.7,14.8z"/>
		<g>
			
				<linearGradient id="SVGID_00000151536388947787300080000009901099973056471688_" gradientUnits="userSpaceOnUse" x1="15" y1="0.2047" x2="15" y2="29.7953">
				<stop  offset="0" style="stop-color:#050033"/>
				<stop  offset="1" style="stop-color:#FD6CA7"/>
			</linearGradient>
			<path style="fill:url(#SVGID_00000151536388947787300080000009901099973056471688_);" d="M15,0.2C6.8,0.2,0.2,6.8,0.2,15
				c0,8.2,6.6,14.8,14.8,14.8S29.8,23.2,29.8,15C29.8,6.8,23.2,0.2,15,0.2z M26,17.1c-0.4,0.1-0.8-0.2-1-0.6c0,0,0,0,0,0
				c0,0,0-0.1,0-0.1c0.1,0.2,0,0,0,0c0,0,0,0,0,0c0,0,0,0,0,0c0,0,0,0-0.1,0c0,0,0,0-0.1,0c0,0,0,0,0,0c0,0,0,0,0,0c0,0-0.1,0-0.1,0
				c0,0,0,0,0,0c0,0,0,0,0,0c0,0,0,0,0,0c0,0,0,0-0.1,0c0,0,0,0.1-0.1,0.1c0,0,0,0.1-0.1,0.1c0,0,0,0,0,0c0,0.1,0,0.2-0.1,0.2
				c0,0,0,0,0,0c0,0,0,0,0,0c0,0.1,0,0.1,0,0.2c0,0,0,0,0,0.1c0,0,0,0,0,0c0,0.2,0.1,0.3,0.1,0.4c0,0,0,0.1,0.1,0.1
				c0,0.1,0.1,0.1,0.1,0.2c0.1,0.3,0.3,0.5,0.4,0.8c0.3,0.6,0.5,1.1,0.7,1.7C26,21.8,25.9,23,25,24c-0.7,0.8-1.9,1.3-3,1.3
				c-0.1,0-0.1,0-0.2,0h-4l0.7-2.7c0.2-0.6,0.2-1.3,0-2c-0.1-0.5-0.3-1-0.6-1.3c-0.4-0.5-0.6-1.2-0.5-1.9c0-0.2,0-0.4,0-0.7
				c-0.2-1.1-1-1.9-2.1-2c-1.5-0.2-2.7,1-2.7,2.4c0,0.1,0,0.2,0,0.3c0.1,0.6-0.1,1.3-0.5,1.8c0,0-0.1,0.1-0.1,0.1
				c-0.6,0.9-0.8,2-0.5,3l0.7,2.8h-5l0-13.4c0-4.2,3.4-7.7,7.6-7.6c4.1,0.1,7.3,3.4,7.3,7.5v12c0.1,0,0.2,0,0.3,0c0,0,0,0,0.1,0
				c0,0,0,0,0,0c0.1,0,0.1,0,0.2,0c0.1,0,0.2-0.1,0.3-0.1c-0.1,0,0.1,0,0.1,0c0.1,0,0.1-0.1,0.2-0.1c0.1-0.1,0.2-0.1,0.3-0.2
				c0,0,0,0,0,0c0,0,0,0,0,0c0,0,0.1-0.1,0.1-0.1c0.1-0.1,0.1-0.1,0.2-0.2c0,0,0,0,0,0c0.1-0.1,0.1-0.2,0.2-0.3c0,0,0-0.1,0.1-0.1
				c0,0,0,0,0,0c0-0.1,0.1-0.3,0.1-0.4c0,0,0,0,0,0c0,0,0-0.1,0-0.1c0-0.1,0-0.1,0-0.2c0-0.1,0-0.2,0-0.2c0,0,0-0.1,0-0.1
				c0-0.3-0.1-0.5-0.2-0.8c0-0.1-0.1-0.3-0.2-0.4c0,0-0.1-0.1-0.1-0.1c0-0.1-0.1-0.1-0.1-0.2c-0.1-0.3-0.3-0.5-0.4-0.8
				c-0.2-0.4-0.4-0.9-0.5-1.4c-0.1-0.5-0.1-1,0.1-1.5c0.7-2,3.1-1.6,3.6,0C26.7,16.6,26.4,17,26,17.1z"/>
			
				<linearGradient id="SVGID_00000152229272003835722890000011040326689910773891_" gradientUnits="userSpaceOnUse" x1="14.9999" y1="8.898672e-02" x2="14.9999" y2="29.9109">
				<stop  offset="0" style="stop-color:#FD6CA7"/>
				<stop  offset="1" style="stop-color:#050033"/>
			</linearGradient>
			<path style="fill:url(#SVGID_00000152229272003835722890000011040326689910773891_);" d="M15,29.9C6.8,29.9,0.1,23.2,0.1,15
				S6.8,0.1,15,0.1S29.9,6.8,29.9,15S23.2,29.9,15,29.9z M15,0.3C6.9,0.3,0.3,6.9,0.3,15S6.9,29.7,15,29.7S29.7,23.1,29.7,15
				S23.1,0.3,15,0.3z M22.2,25.4c-0.1,0-0.1,0-0.2,0c-0.1,0-0.1,0-0.2,0l-4.2,0l0.8-2.9c0.2-0.6,0.2-1.3,0-1.9
				c-0.2-0.6-0.4-1-0.6-1.3c-0.4-0.5-0.6-1.2-0.5-2c0-0.2,0-0.4,0-0.6c-0.2-1-1-1.8-2-1.9c-0.7-0.1-1.3,0.1-1.8,0.6
				c-0.5,0.4-0.8,1.1-0.8,1.7c0,0.1,0,0.2,0,0.3c0.1,0.7-0.1,1.4-0.5,1.9c0,0-0.1,0.1-0.1,0.1c-0.6,0.8-0.8,1.9-0.5,2.9l0.8,3H7
				V11.9c0-2.1,0.9-4.1,2.3-5.6c1.5-1.4,3.4-2.2,5.4-2.2c4.1,0.1,7.5,3.5,7.5,7.6v11.9c0.1,0,0.1,0,0.2,0l0.1,0l0.1,0
				c0,0,0.1,0,0.1,0c0.1,0,0.2-0.1,0.3-0.1l0.1,0c0,0,0.1,0,0.1,0c0.1,0,0.1-0.1,0.2-0.1c0.1-0.1,0.2-0.1,0.3-0.2l0.1-0.1
				c0,0,0.1,0,0.1-0.1c0,0,0.1-0.1,0.1-0.1c0,0,0,0,0.1-0.1c0.1-0.1,0.1-0.2,0.2-0.3c0,0,0-0.1,0.1-0.1c0-0.1,0.1-0.3,0.1-0.4
				c0,0,0-0.1,0-0.1c0-0.1,0-0.1,0-0.2c0-0.1,0-0.1,0-0.2l0,0c0,0,0-0.1,0-0.1c0-0.2-0.1-0.5-0.2-0.7c0-0.1-0.1-0.3-0.2-0.4
				l-0.1-0.1c0-0.1-0.1-0.2-0.1-0.2c-0.1-0.2-0.2-0.4-0.3-0.6l-0.1-0.2c-0.2-0.4-0.4-0.9-0.5-1.4c-0.1-0.5-0.1-1,0.1-1.5
				c0.3-0.9,1-1.4,1.9-1.4c0.9,0,1.6,0.6,1.9,1.4c0.2,0.5-0.2,1-0.6,1.1c-0.2,0.1-0.4,0-0.6-0.1c-0.2-0.1-0.4-0.3-0.5-0.5
				c0,0,0,0,0,0c0,0,0,0,0-0.1c0,0,0,0,0,0c0,0,0,0-0.1,0l0,0c0,0,0,0,0,0c0,0,0,0,0,0c0,0,0,0,0,0c0,0,0,0,0,0.1l-0.1,0.1
				c0,0.1,0,0.1-0.1,0.2l0,0c0,0.1,0,0.1,0,0.2c0,0,0,0,0,0l0,0c0,0.1,0.1,0.3,0.1,0.4c0,0,0,0.1,0.1,0.1c0,0,0,0.1,0.1,0.2
				c0.1,0.1,0.1,0.3,0.2,0.4c0.1,0.1,0.1,0.2,0.2,0.3c0.3,0.5,0.5,1.1,0.7,1.8c0.4,1.4,0.1,2.7-0.7,3.6
				C24.4,24.9,23.3,25.4,22.2,25.4z M18,25.2h3.9c0.1,0,0.1,0,0.2,0c1.1,0.1,2.2-0.4,2.9-1.2c0.8-0.9,1-2.1,0.7-3.4
				c-0.2-0.6-0.4-1.2-0.7-1.7c-0.1-0.1-0.1-0.2-0.2-0.3c-0.1-0.1-0.1-0.3-0.2-0.4c0-0.1-0.1-0.1-0.1-0.2c0,0,0-0.1,0-0.1
				c-0.1-0.2-0.1-0.3-0.1-0.5l0-0.1l0,0c0,0,0,0,0,0c0-0.1,0-0.1,0-0.2l0-0.1c0-0.1,0-0.2,0.1-0.2l0-0.1l0.1-0.1
				c0,0,0.1-0.1,0.1-0.1c0,0,0,0,0,0l0,0l0,0c0,0,0,0,0,0l0,0c0,0,0.1,0,0.1,0l0,0l0.1,0c0,0,0.1,0,0.1,0l0,0c0,0,0,0,0.1,0l0,0l0,0
				c0,0,0,0,0,0l0,0c0,0,0,0,0,0.1l0,0c0.1,0.2,0.2,0.3,0.4,0.4c0.1,0.1,0.3,0.1,0.5,0l0,0c0.3-0.1,0.6-0.5,0.5-0.8
				c-0.2-0.7-0.9-1.2-1.7-1.2c0,0,0,0,0,0c-0.7,0-1.4,0.5-1.6,1.3c-0.2,0.5-0.2,1-0.1,1.4c0.1,0.5,0.3,0.9,0.5,1.3l0.1,0.2
				c0.1,0.2,0.2,0.4,0.3,0.6c0,0.1,0.1,0.1,0.1,0.2l0.1,0.1c0.1,0.1,0.1,0.3,0.2,0.4c0.1,0.3,0.2,0.5,0.2,0.8c0,0,0,0.1,0,0.1
				c0,0,0,0.1,0,0.1c0,0.1,0,0.2,0,0.2c0,0.1,0,0.1,0,0.2c0,0,0,0.1,0,0.1l0,0c0,0.2-0.1,0.3-0.1,0.4l0,0c0,0.1-0.1,0.1-0.1,0.2
				c-0.1,0.1-0.1,0.2-0.2,0.3c0,0,0,0,0,0l-0.1,0.1c0,0-0.1,0.1-0.1,0.1c0,0-0.1,0.1-0.1,0.1l-0.1,0.1l-0.1-0.1l0.1,0.1
				c-0.1,0.1-0.2,0.1-0.3,0.2c-0.1,0-0.1,0.1-0.2,0.1c0,0-0.1,0-0.1,0l0,0l0,0c-0.1,0-0.2,0.1-0.3,0.1c0,0-0.1,0-0.1,0l-0.2,0
				c-0.1,0-0.2,0-0.3,0l-0.1,0V11.7c0-4-3.2-7.3-7.2-7.4c-1.9,0-3.8,0.7-5.2,2.1c-1.4,1.4-2.3,3.4-2.3,5.4v13.3H12l-0.7-2.7
				c-0.3-1.1-0.1-2.3,0.6-3.1c0-0.1,0.1-0.1,0.1-0.2c0.4-0.5,0.6-1.1,0.5-1.7c0-0.1,0-0.2,0-0.4c0-0.7,0.3-1.4,0.8-1.9
				c0.5-0.5,1.3-0.7,2-0.6c1.1,0.1,2,1,2.2,2.1c0,0.2,0,0.5,0,0.7c-0.1,0.7,0.1,1.3,0.5,1.8c0.2,0.3,0.4,0.7,0.6,1.3
				c0.2,0.7,0.2,1.4,0,2L18,25.2z"/>
		</g>
		<g>
			
				<linearGradient id="SVGID_00000096766219100145207240000005116587366256572811_" gradientUnits="userSpaceOnUse" x1="12.1958" y1="11.8172" x2="17.7834" y2="11.8172">
				<stop  offset="0" style="stop-color:#FD6CA7"/>
				<stop  offset="1" style="stop-color:#050033"/>
			</linearGradient>
			<path style="fill:url(#SVGID_00000096766219100145207240000005116587366256572811_);" d="M17.3,10.9l0.3-1.2
				c0-0.2-0.1-0.3-0.3-0.3l-1.2,0.3l-0.3,0.1c-0.3-0.1-0.6-0.2-0.9-0.2c-0.3,0-0.6,0.1-0.9,0.2l-0.3-0.1l-1.2-0.3
				c-0.2,0-0.3,0.1-0.3,0.3l0.3,1.2l0.1,0.3c-0.1,0.3-0.6,0.9-0.5,1.2c0.4,1.3,1.5,1.7,2.8,1.7c1.3,0,2.4-0.4,2.8-1.7
				c0.1-0.3-0.4-1-0.5-1.2L17.3,10.9z"/>
			
				<linearGradient id="SVGID_00000018198076896534196910000002334763705365591483_" gradientUnits="userSpaceOnUse" x1="14.9896" y1="9.3411" x2="14.9896" y2="14.2931">
				<stop  offset="0" style="stop-color:#FD6CA7"/>
				<stop  offset="1" style="stop-color:#050033"/>
			</linearGradient>
			<path style="fill:url(#SVGID_00000018198076896534196910000002334763705365591483_);" d="M15,14.3c-1.6,0-2.5-0.6-2.9-1.8
				c-0.1-0.2,0.1-0.5,0.4-1c0.1-0.1,0.1-0.2,0.2-0.3l-0.4-1.5c0-0.1,0-0.2,0.1-0.3c0.1-0.1,0.2-0.1,0.3-0.1l1.4,0.3
				c0.3-0.1,0.6-0.2,0.9-0.2c0.3,0,0.6,0.1,0.9,0.2l1.4-0.3c0.1,0,0.2,0,0.3,0.1c0.1,0.1,0.1,0.2,0.1,0.3l-0.4,1.5
				c0,0.1,0.1,0.2,0.2,0.3c0.3,0.4,0.4,0.7,0.4,1C17.5,13.7,16.6,14.3,15,14.3z M12.6,9.6C12.5,9.6,12.5,9.6,12.6,9.6
				c-0.1,0-0.1,0.1-0.1,0.1l0.4,1.5l0,0c0,0.1-0.1,0.2-0.2,0.4c-0.1,0.2-0.4,0.6-0.3,0.8c0.3,1.1,1.2,1.6,2.7,1.6
				c1.5,0,2.3-0.5,2.7-1.6c0-0.1-0.2-0.5-0.3-0.8c-0.1-0.2-0.2-0.3-0.2-0.4l0,0l0.4-1.5c0,0,0-0.1,0-0.1s0,0-0.1,0l-1.5,0.4l0,0
				c-0.3-0.1-0.6-0.2-0.9-0.2c-0.3,0-0.6,0.1-0.9,0.2l0,0L12.6,9.6C12.6,9.6,12.6,9.6,12.6,9.6z"/>
		</g>
		<g>
			
				<linearGradient id="SVGID_00000080173831178024312950000014402409442022316198_" gradientUnits="userSpaceOnUse" x1="19.0287" y1="7.8124" x2="19.0287" y2="8.9595">
				<stop  offset="0" style="stop-color:#FD6CA7"/>
				<stop  offset="1" style="stop-color:#050033"/>
			</linearGradient>
			<path style="fill:url(#SVGID_00000080173831178024312950000014402409442022316198_);" d="M19.3,8.2l0.1-0.4L19,8l-0.4-0.2
				l0.1,0.4l-0.3,0.3l0.4,0.1L19,9l0.2-0.4l0.4-0.1L19.3,8.2z M19.1,8.5L19,8.7l-0.1-0.2l-0.2,0l0.2-0.2l0-0.2L19,8.1L19.2,8l0,0.2
				l0.2,0.2L19.1,8.5z"/>
		</g>
	</g>
	<path class="st17" d="M25.1,4h3.3c0.1,0.4,0.4,0.7,0.8,0.7c0.4,0,0.8-0.4,0.8-0.8S29.6,3,29.2,3c-0.3,0-0.6,0.2-0.7,0.5h-3.9
		C22,1.3,18.7,0,15,0C6.7,0,0,6.7,0,15c0,4.5,2,8.6,5.2,11.4H3.4c-0.1-0.4-0.5-0.7-1-0.7c-0.6,0-1,0.5-1,1s0.5,1,1,1
		c0.5,0,1-0.4,1-0.9h2.4c0.7,0.5,1.4,1,2.1,1.4H5.4C5.3,28,5,27.8,4.7,27.8c-0.4,0-0.8,0.4-0.8,0.8s0.4,0.8,0.8,0.8
		c0.4,0,0.7-0.3,0.8-0.7h3.4c1.9,0.8,3.9,1.3,6.1,1.3c8.3,0,15-6.7,15-15C30,10.6,28.1,6.7,25.1,4z M29.2,3.5c0.2,0,0.3,0.2,0.3,0.3
		s-0.2,0.3-0.3,0.3c-0.2,0-0.3-0.2-0.3-0.3S29,3.5,29.2,3.5z M2.4,27.3c-0.3,0-0.6-0.3-0.6-0.6s0.3-0.6,0.6-0.6S3,26.4,3,26.7
		S2.7,27.3,2.4,27.3z M4.7,28.9c-0.2,0-0.3-0.2-0.3-0.3c0-0.2,0.2-0.3,0.3-0.3S5,28.4,5,28.6C5,28.8,4.9,28.9,4.7,28.9z M15,29.5
		C7,29.5,0.5,23,0.5,15S7,0.5,15,0.5S29.5,7,29.5,15S23,29.5,15,29.5z"/>
</g>
</svg>
